<?xml version="1.0" encoding="UTF-8" standalone="no" ?>
<!DOCTYPE svg PUBLIC "-//W3C//DTD SVG 1.1//EN" "http://www.w3.org/Graphics/SVG/1.1/DTD/svg11.dtd">
<svg xmlns="http://www.w3.org/2000/svg" xmlns:xlink="http://www.w3.org/1999/xlink" version="1.1" width="500" height="500" viewBox="0 0 500 500" xml:space="preserve">
<desc>Created with Fabric.js 4.6.0</desc>
<defs>
</defs>
<g transform="matrix(4.5 0 0 3.56 250.43 280.66)" id="p4xdvadPH1SC269YytWk6"  >
<path style="stroke: rgb(232,23,71); stroke-width: 10; stroke-dasharray: none; stroke-linecap: butt; stroke-dashoffset: 0; stroke-linejoin: miter; stroke-miterlimit: 4; fill: rgb(47,47,47); fill-opacity: 0; fill-rule: nonzero; opacity: 1;" vector-effect="non-scaling-stroke"  transform=" translate(0, 0)" d="M 0 -50.88988 C 22.25807 -50.88988 40.32259 -28.091219999999996 40.32259 0 C 40.32259 28.09121 22.258069999999996 50.88988 0 50.88988 C -22.25807 50.88988 -40.32259 28.091219999999996 -40.32259 0 C -40.32259 -28.09121 -22.258069999999996 -50.88988 0 -50.88988 z" stroke-linecap="round" />
</g>
<g transform="matrix(4.62 0 0 4.62 249.84 246.6)" id="Sx6phkDkBGuU-zSP3kkhZ"  >
<path style="stroke: rgb(23,23,23); stroke-width: 10; stroke-dasharray: none; stroke-linecap: butt; stroke-dashoffset: 0; stroke-linejoin: miter; stroke-miterlimit: 4; fill: none; fill-rule: nonzero; opacity: 1;" vector-effect="non-scaling-stroke"  transform=" translate(-40, -40)" d="M 60 40 L 80 80 L 40 80 L 0 80 L 20 40 L 40 0 L 60 40 z" stroke-linecap="round" />
</g>
<g transform="matrix(3.85 0 0 3.85 250.75 258.94)" id="HZsqzI8R1aQoy0f8SFiUU"  >
<path style="stroke: rgb(23,23,23); stroke-width: 10; stroke-dasharray: none; stroke-linecap: butt; stroke-dashoffset: 0; stroke-linejoin: miter; stroke-miterlimit: 4; fill: none; fill-rule: nonzero; opacity: 1;" vector-effect="non-scaling-stroke"  transform=" translate(-40, -40)" d="M 60 40 L 80 80 L 40 80 L 0 80 L 20 40 L 40 0 L 60 40 z" stroke-linecap="round" />
</g>
<g transform="matrix(4.24 0 0 4.24 249.99 252.96)" id="PsK-wv5FYDW_qyuKISYo7"  >
<path style="stroke: rgb(255,255,255); stroke-width: 10; stroke-dasharray: none; stroke-linecap: butt; stroke-dashoffset: 0; stroke-linejoin: miter; stroke-miterlimit: 4; fill: none; fill-rule: nonzero; opacity: 1;" vector-effect="non-scaling-stroke"  transform=" translate(-40, -40)" d="M 60 40 L 80 80 L 40 80 L 0 80 L 20 40 L 40 0 L 60 40 z" stroke-linecap="round" />
</g>
<g transform="matrix(2.27 0 0 2.27 250.43 279.51)" id="6NFpkGrsTjvg6o9s0iNKE"  >
<path style="stroke: rgb(23,23,23); stroke-width: 25; stroke-dasharray: none; stroke-linecap: butt; stroke-dashoffset: 0; stroke-linejoin: miter; stroke-miterlimit: 4; fill: rgb(255,255,255); fill-opacity: 0; fill-rule: nonzero; opacity: 1;" vector-effect="non-scaling-stroke"  transform=" translate(0, 0)" d="M -40 -0.00755 C -40 -0.00755 -20.19544 -20.00755 0 -20.00755 C 20.19544 -20.00755 40 -0.007549999999998391 40 -0.007549999999998391 C 40 -0.007549999999998391 19.86971 19.340980000000002 0 19.99245 C -19.86971 20.64392 -40 -0.007549999999998391 -40 -0.007549999999998391 z" stroke-linecap="round" />
</g>
<g transform="matrix(2.27 0 0 2.27 251.1 279.44)" id="i3Oglf_YYRheivf4ipDJH"  >
<path style="stroke: rgb(255,255,255); stroke-width: 10; stroke-dasharray: none; stroke-linecap: butt; stroke-dashoffset: 0; stroke-linejoin: miter; stroke-miterlimit: 4; fill: rgb(255,255,255); fill-opacity: 0; fill-rule: nonzero; opacity: 1;" vector-effect="non-scaling-stroke"  transform=" translate(0, 0)" d="M -40 -0.00755 C -40 -0.00755 -20.19544 -20.00755 0 -20.00755 C 20.19544 -20.00755 40 -0.007549999999998391 40 -0.007549999999998391 C 40 -0.007549999999998391 19.86971 19.340980000000002 0 19.99245 C -19.86971 20.64392 -40 -0.007549999999998391 -40 -0.007549999999998391 z" stroke-linecap="round" />
</g>
<g transform="matrix(4.94 0 0 4.94 250.43 280.66)" id="z10glaqCR2f9ZQF6cyL9g"  >
<path style="stroke: rgb(23,23,23); stroke-width: 0; stroke-dasharray: none; stroke-linecap: butt; stroke-dashoffset: 0; stroke-linejoin: miter; stroke-miterlimit: 4; fill: rgb(255,255,255); fill-rule: nonzero; opacity: 1;" vector-effect="non-scaling-stroke"  transform=" translate(0, 0)" d="M 0 -5.37459 C 2.96678 -5.37459 5.37459 -2.9667700000000004 5.37459 0 C 5.37459 2.96678 2.9667700000000004 5.37459 0 5.37459 C -2.96678 5.37459 -5.37459 2.9667700000000004 -5.37459 0 C -5.37459 -2.96678 -2.9667700000000004 -5.37459 0 -5.37459 z" stroke-linecap="round" />
</g>
</svg>