<svg id="visual" viewBox="0 0 900 600" width="900" height="600" xmlns="http://www.w3.org/2000/svg" xmlns:xlink="http://www.w3.org/1999/xlink" version="1.1"><rect x="0" y="0" width="900" height="600" fill="#171717"></rect><path d="M0 437L82 400L164 420L245 442L327 420L409 454L491 432L573 396L655 436L736 451L818 416L900 449L900 601L818 601L736 601L655 601L573 601L491 601L409 601L327 601L245 601L164 601L82 601L0 601Z" fill="#000000"></path><path d="M0 430L82 451L164 449L245 485L327 446L409 433L491 485L573 457L655 458L736 485L818 481L900 462L900 601L818 601L736 601L655 601L573 601L491 601L409 601L327 601L245 601L164 601L82 601L0 601Z" fill="#060606"></path><path d="M0 472L82 472L164 474L245 468L327 486L409 468L491 464L573 509L655 509L736 487L818 475L900 466L900 601L818 601L736 601L655 601L573 601L491 601L409 601L327 601L245 601L164 601L82 601L0 601Z" fill="#0c0c0c"></path><path d="M0 508L82 502L164 500L245 522L327 501L409 487L491 504L573 520L655 518L736 533L818 496L900 503L900 601L818 601L736 601L655 601L573 601L491 601L409 601L327 601L245 601L164 601L82 601L0 601Z" fill="#111111"></path><path d="M0 539L82 532L164 538L245 518L327 539L409 541L491 518L573 550L655 549L736 527L818 528L900 528L900 601L818 601L736 601L655 601L573 601L491 601L409 601L327 601L245 601L164 601L82 601L0 601Z" fill="#151515"></path><path d="M0 580L82 554L164 578L245 548L327 564L409 579L491 556L573 562L655 580L736 554L818 571L900 554L900 601L818 601L736 601L655 601L573 601L491 601L409 601L327 601L245 601L164 601L82 601L0 601Z" fill="#191919"></path></svg>