<svg id="visual" viewBox="0 0 900 600" width="900" height="600" xmlns="http://www.w3.org/2000/svg" xmlns:xlink="http://www.w3.org/1999/xlink" version="1.1"><rect x="0" y="0" width="900" height="600" fill="#171717"></rect><path d="M0 551L82 570L164 550L245 546L327 553L409 575L491 555L573 555L655 550L736 548L818 570L900 564L900 601L818 601L736 601L655 601L573 601L491 601L409 601L327 601L245 601L164 601L82 601L0 601Z" fill="#000000"></path><path d="M0 576L82 569L164 566L245 573L327 561L409 560L491 574L573 571L655 574L736 559L818 558L900 565L900 601L818 601L736 601L655 601L573 601L491 601L409 601L327 601L245 601L164 601L82 601L0 601Z" fill="#060606"></path><path d="M0 576L82 579L164 574L245 569L327 563L409 574L491 580L573 578L655 567L736 569L818 566L900 577L900 601L818 601L736 601L655 601L573 601L491 601L409 601L327 601L245 601L164 601L82 601L0 601Z" fill="#0c0c0c"></path><path d="M0 579L82 576L164 572L245 583L327 583L409 569L491 573L573 571L655 580L736 582L818 582L900 587L900 601L818 601L736 601L655 601L573 601L491 601L409 601L327 601L245 601L164 601L82 601L0 601Z" fill="#111111"></path><path d="M0 584L82 577L164 579L245 579L327 577L409 589L491 588L573 586L655 592L736 585L818 581L900 580L900 601L818 601L736 601L655 601L573 601L491 601L409 601L327 601L245 601L164 601L82 601L0 601Z" fill="#151515"></path><path d="M0 593L82 595L164 594L245 586L327 589L409 588L491 594L573 593L655 589L736 590L818 591L900 591L900 601L818 601L736 601L655 601L573 601L491 601L409 601L327 601L245 601L164 601L82 601L0 601Z" fill="#191919"></path></svg>