<svg id="visual" viewBox="0 0 900 600" width="900" height="600" xmlns="http://www.w3.org/2000/svg" xmlns:xlink="http://www.w3.org/1999/xlink" version="1.1"><rect width="900" height="600" fill="#171717"></rect><g><g transform="translate(232 47)"><path d="M0 -13.1L11.4 6.6L-11.4 6.6Z" fill="#e81747"></path></g><g transform="translate(555 522)"><path d="M0 -5L4.3 2.5L-4.3 2.5Z" fill="#e81747"></path></g><g transform="translate(888 215)"><path d="M0 -3L2.6 1.5L-2.6 1.5Z" fill="#e81747"></path></g><g transform="translate(399 592)"><path d="M0 -5L4.3 2.5L-4.3 2.5Z" fill="#e81747"></path></g><g transform="translate(33 6)"><path d="M0 -4L3.5 2L-3.5 2Z" fill="#e81747"></path></g><g transform="translate(67 21)"><path d="M0 -8L6.9 4L-6.9 4Z" fill="#e81747"></path></g><g transform="translate(704 148)"><path d="M0 -2L1.7 1L-1.7 1Z" fill="#e81747"></path></g><g transform="translate(374 450)"><path d="M0 -12L10.4 6L-10.4 6Z" fill="#e81747"></path></g><g transform="translate(826 272)"><path d="M0 -7L6.1 3.5L-6.1 3.5Z" fill="#e81747"></path></g><g transform="translate(653 74)"><path d="M0 -11L9.5 5.5L-9.5 5.5Z" fill="#e81747"></path></g><g transform="translate(56 528)"><path d="M0 -8L6.9 4L-6.9 4Z" fill="#e81747"></path></g><g transform="translate(604 379)"><path d="M0 -3L2.6 1.5L-2.6 1.5Z" fill="#e81747"></path></g><g transform="translate(265 427)"><path d="M0 -4L3.5 2L-3.5 2Z" fill="#e81747"></path></g><g transform="translate(77 487)"><path d="M0 -2L1.7 1L-1.7 1Z" fill="#e81747"></path></g><g transform="translate(864 388)"><path d="M0 -11L9.5 5.5L-9.5 5.5Z" fill="#e81747"></path></g><g transform="translate(7 359)"><path d="M0 -2L1.7 1L-1.7 1Z" fill="#e81747"></path></g><g transform="translate(113 272)"><path d="M0 -2L1.7 1L-1.7 1Z" fill="#e81747"></path></g><g transform="translate(13 254)"><path d="M0 -4L3.5 2L-3.5 2Z" fill="#e81747"></path></g><g transform="translate(218 153)"><path d="M0 -12L10.4 6L-10.4 6Z" fill="#e81747"></path></g><g transform="translate(478 34)"><path d="M0 -11L9.5 5.5L-9.5 5.5Z" fill="#e81747"></path></g><g transform="translate(91 590)"><path d="M0 -3L2.6 1.5L-2.6 1.5Z" fill="#e81747"></path></g><g transform="translate(413 43)"><path d="M0 -6L5.2 3L-5.2 3Z" fill="#e81747"></path></g><g transform="translate(561 421)"><path d="M0 -5L4.3 2.5L-4.3 2.5Z" fill="#e81747"></path></g><g transform="translate(163 140)"><path d="M0 -11L9.5 5.5L-9.5 5.5Z" fill="#e81747"></path></g><g transform="translate(611 406)"><path d="M0 -10L8.7 5L-8.7 5Z" fill="#e81747"></path></g><g transform="translate(551 297)"><path d="M0 -1L0.9 0.5L-0.9 0.5Z" fill="#e81747"></path></g><g transform="translate(357 76)"><path d="M0 -10L8.7 5L-8.7 5Z" fill="#e81747"></path></g><g transform="translate(51 476)"><path d="M0 -12L10.4 6L-10.4 6Z" fill="#e81747"></path></g><g transform="translate(172 440)"><path d="M0 -8L6.9 4L-6.9 4Z" fill="#e81747"></path></g><g transform="translate(512 66)"><path d="M0 -4L3.5 2L-3.5 2Z" fill="#e81747"></path></g><g transform="translate(43 427)"><path d="M0 -3L2.6 1.5L-2.6 1.5Z" fill="#e81747"></path></g><g transform="translate(192 2)"><path d="M0 -3L2.6 1.5L-2.6 1.5Z" fill="#e81747"></path></g><g transform="translate(452 455)"><path d="M0 -2L1.7 1L-1.7 1Z" fill="#e81747"></path></g><g transform="translate(815 143)"><path d="M0 -5L4.3 2.5L-4.3 2.5Z" fill="#e81747"></path></g><g transform="translate(699 334)"><path d="M0 -1L0.9 0.5L-0.9 0.5Z" fill="#e81747"></path></g><g transform="translate(358 210)"><path d="M0 -2L1.7 1L-1.7 1Z" fill="#e81747"></path></g><g transform="translate(623 506)"><path d="M0 -7L6.1 3.5L-6.1 3.5Z" fill="#e81747"></path></g><g transform="translate(242 287)"><path d="M0 -7L6.1 3.5L-6.1 3.5Z" fill="#e81747"></path></g><g transform="translate(138 290)"><path d="M0 -4L3.5 2L-3.5 2Z" fill="#e81747"></path></g><g transform="translate(794 596)"><path d="M0 -7L6.1 3.5L-6.1 3.5Z" fill="#e81747"></path></g><g transform="translate(811 227)"><path d="M0 -1L0.9 0.5L-0.9 0.5Z" fill="#e81747"></path></g><g transform="translate(851 503)"><path d="M0 -5L4.3 2.5L-4.3 2.5Z" fill="#e81747"></path></g><g transform="translate(300 442)"><path d="M0 -7L6.1 3.5L-6.1 3.5Z" fill="#e81747"></path></g><g transform="translate(428 102)"><path d="M0 -11L9.5 5.5L-9.5 5.5Z" fill="#e81747"></path></g><g transform="translate(70 319)"><path d="M0 -10L8.7 5L-8.7 5Z" fill="#e81747"></path></g><g transform="translate(437 23)"><path d="M0 -8L6.9 4L-6.9 4Z" fill="#e81747"></path></g><g transform="translate(525 540)"><path d="M0 -10L8.7 5L-8.7 5Z" fill="#e81747"></path></g><g transform="translate(661 119)"><path d="M0 -7L6.1 3.5L-6.1 3.5Z" fill="#e81747"></path></g><g transform="translate(491 236)"><path d="M0 -1L0.9 0.5L-0.9 0.5Z" fill="#e81747"></path></g><g transform="translate(95 242)"><path d="M0 -7L6.1 3.5L-6.1 3.5Z" fill="#e81747"></path></g><g transform="translate(480 177)"><path d="M0 -1L0.9 0.5L-0.9 0.5Z" fill="#e81747"></path></g><g transform="translate(265 322)"><path d="M0 -8L6.9 4L-6.9 4Z" fill="#e81747"></path></g><g transform="translate(599 196)"><path d="M0 -12L10.4 6L-10.4 6Z" fill="#e81747"></path></g><g transform="translate(596 542)"><path d="M0 -2L1.7 1L-1.7 1Z" fill="#e81747"></path></g></g></svg>